<svg width="514" height="74" viewBox="0 0 514 74" fill="none" xmlns="http://www.w3.org/2000/svg">
<path d="M0 30.2667C0 58.2667 0.133333 60.4 2.4 60.1334C4.4 59.7334 4.66667 57.6 5.06667 38.2667C5.2 24.9334 5.86667 16.6667 6.8 16.6667C7.46667 16.6667 18.4 26.8 31.0667 39.2L54 61.8667L54.4 32.4C54.5333 16.1334 54.4 2.66669 54 2.13336C53.6 1.73336 47.4667 7.33336 40.2667 14.4L27.3333 27.3334L13.7333 13.7334L0 3.05176e-05V30.2667ZM48 32.2667V48L39.7333 39.7334L31.3333 31.3334L38.6667 24C42.6667 20 46.4 16.6667 46.9333 16.6667C47.4667 16.6667 48 23.7334 48 32.2667Z" fill="white"/>
<path d="M221.333 38.6667V74L264.267 73.7333C304 73.3333 307.333 73.2 307.733 71.0667C308.133 68.8 305.6 68.6667 268.267 68.6667C233.067 68.6667 228.133 68.4 227.467 66.5333C227.067 65.3333 226.667 50.6667 226.667 33.8667C226.667 4.26666 226.533 3.33333 224 3.33333C221.467 3.33333 221.333 4.26666 221.333 38.6667Z" fill="white"/>
<path d="M335.733 15.8667C328.933 18.6667 328.667 18.9334 330.533 21.8667C331.467 23.3334 332.8 23.0667 337.867 20.9334C344 18.1334 344.8 17.2 342.933 14.5334C342.267 13.6 340 14 335.733 15.8667Z" fill="white"/>
<path d="M79.2001 24.8C76.8001 25.4667 73.0667 28.1333 70.8001 30.6667C67.4667 34.5333 66.6667 36.6667 66.6667 41.6C66.6667 55.8667 79.4667 64.2667 92.6667 58.8C95.4668 57.6 97.6001 57.3333 98.0001 58.1333C98.5334 58.8 99.7334 59.3333 100.8 59.3333C102.267 59.3333 102.667 56.2667 102.667 42.5333V25.6L98.5334 26.5333C96.1334 26.9333 93.6001 26.8 92.8001 26.1333C90.2668 24.1333 83.6001 23.4667 79.2001 24.8ZM92.4001 33.0667C94.8001 34.9333 96.4001 37.7333 96.9334 40.9333C97.6001 45.2 97.0667 46.4 93.6001 50C88.0001 55.4667 81.3334 55.6 75.8667 50.1333C71.7334 45.8667 71.0667 41.8667 73.8667 36.8C77.7334 29.8667 86.2668 28.1333 92.4001 33.0667Z" fill="white"/>
<path d="M155.2 25.8667C145.6 30.2667 141.467 41.0667 146 50C150.267 58.2667 159.867 62.2667 168.533 59.3333C174.667 57.3333 176.933 54.6667 174.667 52C173.2 50.2667 172.667 50.2667 170.267 52C168.667 53.0667 165.067 54 162.267 54C151.067 54 146.267 40.6667 154.8 33.4667C159.467 29.4667 164.667 29.0667 169.067 32.1333C172.4 34.4 176 33.8667 176 30.8C176 28.8 166 23.3333 162.533 23.3333C161.467 23.3333 158.267 24.5333 155.2 25.8667Z" fill="white"/>
<path d="M412.533 25.2C399.333 30.9333 396.267 47.0667 406.8 55.8667C412.267 60.5333 418.933 61.4667 425.6 58.8C429.6 57.3333 431.6 57.0667 432.8 58.1333C436.4 61.0667 437.333 57.7333 437.333 41.7333V25.6L433.333 26.4C431.2 26.9333 427.467 26.4 424.8 25.3333C419.067 22.9333 417.867 22.9333 412.533 25.2ZM425.333 32C432 35.4667 433.2 46 427.333 50.9333C423.467 54.4 415.467 55.0667 411.867 52.2667C405.6 47.4667 405.067 39.3333 410.533 33.8667C414.933 29.4667 419.467 28.9333 425.333 32Z" fill="white"/>
<path d="M490.667 24.8C487.867 25.3333 484.267 27.7333 481.733 30.5333C478 34.5333 477.333 36.2666 477.333 41.6C477.333 52.4 482.8 58.9333 492.933 60.2666C503.733 61.7333 513.333 53.3333 513.333 42.5333C513.333 30.8 502.4 22.2666 490.667 24.8ZM501.2 32C503.333 33.0666 505.733 35.6 506.533 37.7333C510.933 48.2666 499.867 57.4666 488.8 52.5333C481.733 49.3333 481.067 37.8666 487.6 32.6666C491.6 29.4666 496 29.3333 501.2 32Z" fill="white"/>
<path d="M120.4 25.6L114.667 26.1333V42.6667C114.667 54.5333 115.067 59.2 116.4 59.6C120.4 61.2 121.333 59.0667 121.333 48C121.333 34.9333 123.333 31.2 130.667 30.8C134.4 30.6667 135.333 30 135.333 28C135.333 25.0667 131.6 24.5333 120.4 25.6Z" fill="white"/>
<path d="M365.333 27.3333C365.333 29.7333 366.267 30 373.333 30C377.867 30 381.333 30.5333 381.333 31.3333C381.333 32.1333 377.067 38.5333 371.867 45.6C362.8 58.2667 362.533 58.5333 365.6 59.7333C367.333 60.4 373.467 60.6667 379.333 60.4C388.933 60 390 59.7333 390 57.3333C390 55.0667 388.933 54.6667 382.4 54.2667C378.133 54 374.667 53.4667 374.667 53.0667C374.667 52.6667 378.933 46.2667 384 39.0667C389.2 31.7333 393.333 25.6 393.333 25.2C393.333 24.9333 387.067 24.6667 379.333 24.6667C366.267 24.6667 365.333 24.8 365.333 27.3333Z" fill="white"/>
<path d="M459.467 25.6C458.933 26.1334 456.533 26.4 454 26.2667L449.333 25.8667V42.5334C449.333 54.5334 449.733 59.2 451.067 59.6C455.2 61.2 456 59.0667 456 47.3334C456 36.1334 456.133 35.3334 459.6 32.6667C461.867 30.9334 464.267 30.1334 466.133 30.5334C469.067 31.3334 471.467 28.4 469.867 25.8667C469.067 24.4 460.933 24.2667 459.467 25.6Z" fill="white"/>
<path d="M327.467 27.3334C314.667 31.2001 311.2 48.5334 321.467 57.2001C326.4 61.4667 330.667 62.5334 336.4 61.3334C338.667 60.9334 342.8 60.2667 345.333 60.1334L350 59.7334L350.4 44.0001L350.8 28.4001L347.2 29.0667C345.2 29.3334 341.6 28.9334 339.2 27.8667C334.267 25.7334 332.933 25.7334 327.467 27.3334ZM341.467 36.5334C347.467 42.6667 345.867 50.8001 337.867 54.6667C326.267 60.1334 315.467 45.0667 324.667 36.0001C329.333 31.2001 336.4 31.4667 341.467 36.5334Z" fill="white"/>
</svg>
