<?xml version="1.0" standalone="no"?>
<!DOCTYPE svg PUBLIC "-//W3C//DTD SVG 20010904//EN"
 "http://www.w3.org/TR/2001/REC-SVG-20010904/DTD/svg10.dtd">
<svg version="1.0" xmlns="http://www.w3.org/2000/svg"
 width="405.000000pt" height="119.000000pt" viewBox="0 0 405.000000 119.000000"
 preserveAspectRatio="xMidYMid meet">

<g transform="translate(0.000000,119.000000) scale(0.100000,-0.100000)"
fill="#000000" stroke="none">
<path d="M80 618 c0 -210 1 -226 18 -224 15 3 17 19 20 164 1 100 6 162 13
162 5 0 87 -76 182 -169 l172 -170 3 221 c1 122 0 223 -3 227 -3 3 -49 -39
-103 -92 l-97 -97 -102 102 -103 103 0 -227z m360 -15 l0 -118 -62 62 -63 63
55 55 c30 30 58 55 62 55 4 0 8 -53 8 -117z"/>
<path d="M1740 555 l0 -265 322 2 c298 3 323 4 326 20 3 17 -16 18 -296 18
-264 0 -301 2 -306 16 -3 9 -6 119 -6 245 0 222 -1 229 -20 229 -19 0 -20 -7
-20 -265z"/>
<path d="M2598 726 c-51 -21 -53 -23 -39 -45 7 -11 17 -9 55 7 46 21 52 28 38
48 -5 7 -22 4 -54 -10z"/>
<path d="M674 659 c-18 -5 -46 -25 -63 -44 -25 -29 -31 -45 -31 -82 0 -107 96
-170 195 -129 21 9 37 11 40 5 4 -5 13 -9 21 -9 11 0 14 23 14 126 l0 127 -31
-7 c-18 -3 -37 -2 -43 3 -19 15 -69 20 -102 10z m99 -62 c18 -14 30 -35 34
-59 5 -32 1 -41 -25 -68 -42 -41 -92 -42 -133 -1 -31 32 -36 62 -15 100 29 52
93 65 139 28z"/>
<path d="M1244 651 c-72 -33 -103 -114 -69 -181 32 -62 104 -92 169 -70 46 15
63 35 46 55 -11 13 -15 13 -33 0 -12 -8 -39 -15 -60 -15 -84 0 -120 100 -56
154 35 30 74 33 107 10 25 -17 52 -13 52 10 0 15 -75 56 -101 56 -8 0 -32 -9
-55 -19z"/>
<path d="M3174 656 c-99 -43 -122 -164 -43 -230 41 -35 91 -42 141 -22 30 11
45 13 54 5 27 -22 34 3 34 123 l0 121 -30 -6 c-16 -4 -44 0 -64 8 -43 18 -52
18 -92 1z m96 -51 c50 -26 59 -105 15 -142 -29 -26 -89 -31 -116 -10 -47 36
-51 97 -10 138 33 33 67 37 111 14z"/>
<path d="M3760 659 c-21 -4 -48 -22 -67 -43 -28 -30 -33 -43 -33 -83 0 -81 41
-130 117 -140 81 -11 153 52 153 133 0 88 -82 152 -170 133z m79 -54 c16 -8
34 -27 40 -43 33 -79 -50 -148 -133 -111 -53 24 -58 110 -9 149 30 24 63 25
102 5z"/>
<path d="M983 653 l-43 -4 0 -124 c0 -89 3 -124 13 -127 30 -12 37 4 37 87 0
98 15 126 70 129 28 1 35 6 35 21 0 22 -28 26 -112 18z"/>
<path d="M2820 640 c0 -18 7 -20 60 -20 34 0 60 -4 60 -10 0 -6 -32 -54 -71
-107 -68 -95 -70 -97 -47 -106 13 -5 59 -7 103 -5 72 3 80 5 80 23 0 17 -8 20
-57 23 -32 2 -58 6 -58 9 0 3 32 51 70 105 39 55 70 101 70 104 0 2 -47 4
-105 4 -98 0 -105 -1 -105 -20z"/>
<path d="M3526 653 c-4 -4 -22 -6 -41 -5 l-35 3 0 -125 c0 -90 3 -125 13 -128
31 -12 37 4 37 92 0 84 1 90 27 110 17 13 35 19 49 16 22 -6 40 16 28 35 -6
11 -67 12 -78 2z"/>
<path d="M2536 640 c-96 -29 -122 -159 -45 -224 37 -32 69 -40 112 -31 17 3
48 8 67 9 l35 3 3 118 3 117 -27 -5 c-15 -2 -42 1 -60 9 -37 16 -47 16 -88 4z
m105 -69 c45 -46 33 -107 -27 -136 -87 -41 -168 72 -99 140 35 36 88 34 126
-4z"/>
</g>
</svg>
